HIERARCHY
ROOT Hips
{
    OFFSET 0.000000 0.000000 0.000000
    CHANNELS 6 Xposition Yposition Zposition Zrotation Xrotation Yrotation
    JOINT Spine
    {
        OFFSET -0.000000 7.236184 0.000000
        CHANNELS 3 Zrotation Xrotation Yrotation
        JOINT Spine1
        {
            OFFSET -0.000000 20.420147 0.000000
            CHANNELS 3 Zrotation Xrotation Yrotation
            JOINT Neck
            {
                OFFSET -0.000000 20.336288 1.848754
                CHANNELS 3 Zrotation Xrotation Yrotation
                JOINT Head
                {
                    OFFSET -0.000000 12.354461 -1.764923
                    CHANNELS 3 Zrotation Xrotation Yrotation
                    End Site
                    {
                        OFFSET -0.000000 22.061537 0.000000
                    }
                }
            }
            JOINT LeftShoulder
            {
                OFFSET 3.573296 18.396038 -0.314103
                CHANNELS 3 Zrotation Xrotation Yrotation
                JOINT LeftArm
                {
                    OFFSET 10.880760 0.000000 0.000000
                    CHANNELS 3 Zrotation Xrotation Yrotation
                    JOINT LeftForeArm
                    {
                        OFFSET 27.185530 0.000000 0.000000
                        CHANNELS 3 Zrotation Xrotation Yrotation
                        JOINT LeftHand
                        {
                            OFFSET 27.825975 0.000000 0.000000
                            CHANNELS 3 Zrotation Xrotation Yrotation
                            End Site
                            {
                                OFFSET 13.236923 0.000000 0.000000
                            }
                        }
                    }
                }
            }
            JOINT RightShoulder
            {
                OFFSET -3.474926 18.396038 -0.314103
                CHANNELS 3 Zrotation Xrotation Yrotation
                JOINT RightArm
                {
                    OFFSET -10.880760 0.000000 0.000000
                    CHANNELS 3 Zrotation Xrotation Yrotation
                    JOINT RightForeArm
                    {
                        OFFSET -27.185530 0.000000 0.000000
                        CHANNELS 3 Zrotation Xrotation Yrotation
                        JOINT RightHand
                        {
                            OFFSET -27.825975 0.000000 0.000000
                            CHANNELS 3 Zrotation Xrotation Yrotation
                            End Site
                            {
                                OFFSET -13.236923 0.000000 0.000000
                            }
                        }
                    }
                }
            }
        }
    }
    JOINT LeftUpLeg
    {
        OFFSET 8.824615 0.000000 0.000000
        CHANNELS 3 Zrotation Xrotation Yrotation
        JOINT LeftLeg
        {
            OFFSET -0.000000 -35.111282 0.000000
            CHANNELS 3 Zrotation Xrotation Yrotation
            JOINT LeftFoot
            {
                OFFSET -0.000000 -42.324711 0.000000
                CHANNELS 3 Zrotation Xrotation Yrotation
                JOINT LeftToeBase
                {
                    OFFSET -0.000000 -5.735999 13.236923
                    CHANNELS 3 Zrotation Xrotation Yrotation
                    End Site
                    {
                        OFFSET -0.000000 0.000000 3.529846
                    }
                }
            }
        }
    }
    JOINT RightUpLeg
    {
        OFFSET -8.824615 0.000000 0.000000
        CHANNELS 3 Zrotation Xrotation Yrotation
        JOINT RightLeg
        {
            OFFSET -0.000000 -35.111282 0.000000
            CHANNELS 3 Zrotation Xrotation Yrotation
            JOINT RightFoot
            {
                OFFSET -0.000000 -42.324711 0.000000
                CHANNELS 3 Zrotation Xrotation Yrotation
                JOINT RightToeBase
                {
                    OFFSET -0.000000 -5.735999 13.236923
                    CHANNELS 3 Zrotation Xrotation Yrotation
                    End Site
                    {
                        OFFSET -0.000000 0.000000 3.529846
                    }
                }
            }
        }
    }
}
MOTION
Frames:    8
Frame Time:    0.008333
9.895648    82.374115    106.255318    0.493460    -8.840006    -169.130920    -2.114972    -15.612285    0.515298    2.396926    6.832003    0.662118    0.741209    8.033189    -2.921038    2.083471    -2.700734    -2.751185    -0.869377    17.060261    1.777129    -57.406109    40.514168    -28.313654    -2.550468    -11.264687    -22.152985    24.524628    -11.494148    1.221082    7.538631    18.437986    -5.898487    52.108654    30.866261    27.479696    4.612221    -33.053429    29.535316    -28.924955    -29.073212    -22.427464    5.173721    -17.903206    1.874794    0.276694    21.468624    5.663556    -6.240677    -8.432719    -11.123627    -0.597998    -1.038237    0.664110    -4.558212    -3.571300    -2.317770    3.219167    4.283343    2.717748    0.739531    -7.192701    -14.908108    -0.491182    1.499090    0.530174
9.869768    82.366760    106.283821    0.601354    -8.868608    -168.982574    -2.048881    -15.535978    0.680621    2.368600    6.775257    0.819889    0.663923    7.985783    -3.074203    2.190027    -2.769146    -2.886060    -0.848343    17.147299    1.913082    -58.324371    39.896694    -27.072432    -2.700547    -12.100172    -21.822845    25.309669    -12.296246    1.425928    7.449818    18.247293    -5.794039    51.998859    30.226952    27.903616    4.873179    -33.461430    31.390038    -29.812498    -29.309834    -23.082865    5.177227    -18.377312    1.807694    0.256148    22.107016    6.074528    -6.223621    -8.464072    -11.210299    -0.534664    -1.061552    0.593800    -4.485624    -3.609490    -2.534911    3.207088    4.285636    2.736715    0.762752    -7.208015    -14.859993    -0.504856    1.515548    0.544921
9.841095    82.358170    106.310638    0.710184    -8.894256    -168.835312    -1.978577    -15.456169    0.856838    2.333660    6.712143    0.988445    0.585175    7.944825    -3.234289    2.302350    -2.840984    -3.026771    -0.825006    17.242226    2.052613    -59.227707    39.275669    -25.800961    -2.819836    -12.951442    -21.450008    26.055475    -13.094694    1.673567    7.349574    18.039467    -5.684813    51.883762    29.571991    28.364452    5.122846    -33.759403    33.366379    -30.610104    -29.482143    -23.609884    5.182044    -18.852465    1.747333    0.210598    22.749498    6.552308    -6.184810    -8.475917    -11.296814    -0.475586    -1.100173    0.528225    -4.414606    -3.641246    -2.734034    3.197882    4.282985    2.746230    0.779623    -7.224874    -14.818686    -0.517870    1.536666    0.558952
9.809356    82.348503    106.335091    0.818387    -8.915989    -168.688736    -1.905647    -15.372864    1.042828    2.292592    6.642868    1.166915    0.504097    7.910151    -3.401015    2.420131    -2.912853    -3.173091    -0.799233    17.342291    2.195798    -60.117653    38.646778    -24.499763    -2.904953    -13.807925    -21.037271    26.740023    -13.879859    1.958266    7.235816    17.814486    -5.568475    51.770065    28.907381    28.856077    5.354081    -33.952351    35.451756    -31.313465    -29.596813    -24.011921    5.187569    -19.322998    1.696963    0.138262    23.389349    7.097257    -6.122119    -8.466576    -11.383638    -0.424064    -1.159067    0.471051    -4.346408    -3.665531    -2.912284    3.191510    4.277012    2.743800    0.792270    -7.245039    -14.784827    -0.530194    1.561554    0.572235
9.773600    82.337791    106.356903    0.926999    -8.932882    -168.538971    -1.829585    -15.283876    1.241609    2.244498    6.566075    1.358313    0.418062    7.879910    -3.577861    2.545949    -2.981600    -3.328049    -0.769642    17.446396    2.346371    -61.015835    37.987183    -23.140284    -2.956214    -14.679242    -20.579987    27.359560    -14.661437    2.281179    7.103796    17.567095    -5.439749    51.661823    28.225679    29.383217    5.564259    -34.050484    37.678394    -31.936125    -29.662357    -24.300848    5.193746    -19.793299    1.659128    0.036007    24.034321    7.719616    -6.034208    -8.435346    -11.471994    -0.381562    -1.242145    0.423905    -4.280349    -3.681870    -3.072914    3.187483    4.269641    2.727393    0.803134    -7.270573    -14.756784    -0.541944    1.589997    0.584894
9.734557    82.326492    106.374596    1.032700    -8.943007    -168.388565    -1.753283    -15.191362    1.447319    2.191571    6.484285    1.556946    0.328646    7.853635    -3.760443    2.675220    -3.041540    -3.488156    -0.736374    17.548002    2.500724    -61.903122    37.300053    -21.755249    -2.975067    -15.536028    -20.095146    27.887281    -15.415649    2.626524    6.953400    17.303814    -5.299757    51.568211    27.550964    29.929121    5.741040    -34.059303    39.976940    -32.464375    -29.683453    -24.473427    5.200686    -20.246531    1.638775    -0.093953    24.663773    8.400678    -5.925454    -8.383663    -11.559280    -0.351316    -1.350515    0.390380    -4.217942    -3.688766    -3.212384    3.185172    4.263618    2.696419    0.813956    -7.302961    -14.734695    -0.552676    1.620211    0.596453
9.690926    82.314476    106.388046    1.138861    -8.945555    -168.230911    -1.674712    -15.092109    1.665580    2.132618    6.394912    1.768259    0.232234    7.829294    -3.954929    2.811824    -3.090755    -3.658947    -0.697383    17.644728    2.664079    -62.809608    36.546356    -20.299398    -2.965495    -16.399549    -19.573463    28.336815    -16.163702    2.999537    6.776747    17.016674    -5.141740    51.491886    26.867998    30.507153    5.883694    -33.988201    42.406281    -32.920990    -29.665766    -24.541609    5.208715    -20.693842    1.638291    -0.254393    25.294870    9.158092    -5.797026    -8.311413    -11.648954    -0.333444    -1.487680    0.370615    -4.156624    -3.686030    -3.337330    3.183862    4.261345    2.650177    0.825776    -7.344791    -14.717574    -0.562775    1.653087    0.607325
9.643404    82.302048    106.396309    1.243418    -8.939633    -168.067062    -1.595819    -14.988180    1.891462    2.069325    6.299833    1.987491    0.130333    7.805813    -4.158161    2.951920    -3.124752    -3.838046    -0.652217    17.728376    2.833897    -63.716621    35.723869    -18.802647    -2.930038    -17.245932    -19.030994    28.697340    -16.887949    3.383535    6.572788    16.710732    -4.966329    51.441292    26.197706    31.101337    5.981802    -33.842926    44.904922    -33.305401    -29.608070    -24.508743    5.217412    -21.123657    1.660492    -0.440685    25.912537    9.973705    -5.655439    -8.221580    -11.739691    -0.329196    -1.650085    0.366003    -4.097195    -3.673998    -3.447559    3.182889    4.266423    2.590051    0.838802    -7.397127    -14.705831    -0.571658    1.687365    0.616883
